<?xml version="1.0" standalone="no"?>
<!DOCTYPE svg PUBLIC
    "-//W3C//DTD SVG 1.1//EN"
    "http://www.w3.org/Graphics/SVG/1.1/DTD/svg11.dtd">
<svg xmlns="http://www.w3.org/2000/svg"
     xmlns:xlink="http://www.w3.org/1999/xlink"
     width="1.6cm" height="1.6cm" viewBox="-1 -1 4726 4726">
<g style="stroke-width:0;fill:#179C7D;">
<rect x="0" y="0" width="4724" height="4724" rx="0" style="fill:white;"/>
<polyline points="1697,4724 4724,4724 4724,2435 4251,2826 3779,3203 3307,3565 2834,3911 2362,4259 1889,4591 1697,4724"/>
<polyline points="449,4724 1077,4724 1417,4517 1889,4228 2362,3926 2834,3616 3307,3291 3779,2952 4251,2605 4724,2243 4724,1970 4251,2317 3779,2649 3307,2974 2834,3283 2362,3587 1889,3882 1417,4170 944,4443 449,4724"/>
<polyline points="0,4015 0,4724 487,4457 944,4214 1417,3948 1889,3675 2362,3387 2834,3100 3307,2796 3779,2487 4251,2177 4724,1851 4724,1401 4251,1704 3779,1999 3307,2280 2834,2553 2362,2811 1889,3070 1417,3314 944,3558 487,3786 0,4015"/>
<polyline points="0,2435 0,3358 487,3151 944,2952 1417,2745 1889,2531 2362,2309 2834,2073 3307,1829 3779,1579 4251,1313 4724,1047 4724,826 4251,1055 3779,1261 3307,1454 2834,1630 2362,1793 1889,1948 1417,2088 944,2214 487,2324 0,2435"/>
<polyline points="0,1564 0,2095 487,2007 944,1911 1417,1800 1889,1675 2362,1542 2834,1394 3307,1225 3779,1047 4251,848 4724,641 4724,390 4251,590 3779,774 3307,929 2834,1069 2369,1188 1889,1298 1417,1386 944,1461 487,1520 0,1564"/>
<polyline points="0,0 0,1313 487,1276 944,1232 1417,1172 1889,1099 2362,1011 2834,899 3307,774 3786,626 4251,464 4724,272 4724,0 0,0"/>
</g>
</svg>
